<svg id="Capa_1" enable-background="new 0 0 505 505" height="512" viewBox="0 0 505 505" width="512" xmlns="http://www.w3.org/2000/svg"><g><g><path d="m434.5 333.654v111.6c0 18.3-14.84 33.13-33.14 33.13h-297.72c-18.3 0-33.14-14.83-33.14-33.13v-111.6l44-44h276z" fill="#eab74d"/><path d="m434.5 333.654v30h-78.39v-44h64.39z" fill="#d09d3f"/><path d="m159.5 319.654v44h-89v-30l14-14z" fill="#d09d3f"/><path d="m452.5 333.654h-96.388v-44h69.427c14.89 0 26.961 12.071 26.961 26.961z" fill="#eab74d"/><path d="m52.496 333.654h107.002v-44h-80.041c-14.89 0-26.961 12.071-26.961 26.961z" fill="#eab74d"/><path d="m41.7 53.204h-34.2v65.86h34.2 421.6 34.2v-65.86h-34.2" fill="#77bf9a"/><path d="m41.7 89.765h-34.2v29.299h34.2 421.6 34.2v-29.299h-34.2" fill="#66a582"/><path d="m390.5 210.884v233.77c0 18.63-15.1 33.73-33.73 33.73h-208.54c-18.63 0-33.73-15.1-33.73-33.73v-233.77z" fill="#77bf9a"/><path d="m185.727 478.384h-37.5c-18.63 0-33.73-15.1-33.73-33.73v-233.77h37.5v233.77c0 18.63 15.1 33.73 33.73 33.73z" fill="#66a582"/><path d="m390.5 210.884v37.93c-6.04 3.84-13.2 6.07-20.88 6.07h-234.24c-7.68 0-14.85-2.22-20.88-6.06v-37.94z" fill="#66a582"/><path d="m408.61 124.814v67.07c0 21.54-17.46 39-38.99 39h-234.24c-21.54 0-39-17.46-39-39v-67.07z" fill="#77bf9a"/><path d="m172.88 230.884h-37.5c-21.54 0-39-17.46-39-39v-67.07h37.5v67.07c0 21.54 17.46 39 39 39z" fill="#66a582"/><path d="m96.38 124.814h312.23v37.17h-312.23z" fill="#66a582"/><path d="m120.5 37.454h-72.64c-3.4 0-6.16 2.76-6.16 6.16v85.04c0 3.4 2.76 6.16 6.16 6.16h72.64 264 72.63c3.41 0 6.17-2.76 6.17-6.16v-85.04c0-3.4-2.76-6.16-6.17-6.16h-72.63" fill="#de5866"/><path d="m41.7 103.554v25.1c0 3.4 2.76 6.16 6.16 6.16h72.64 264 72.63c3.41 0 6.17-2.76 6.17-6.16v-25.1" fill="#c6475c"/><path d="m226.98 169.654v110 32 49.84l25.52 28.16 25.52-28.16v-49.84-32-110" fill="#eab74d"/><g fill="#eab74d"><path d="m120.497 26.615h42v119.039h-42z"/><path d="m342.497 26.615h42v119.039h-42z"/></g><g fill="#d09d3f"><path d="m120.497 113.764h42v31.89h-42z"/><path d="m342.497 113.764h42v31.89h-42z"/></g><path d="m204.497 279.654h96v32h-96z" fill="#77bf9a"/></g><g><path d="m382.997 250.882v124.366c0 4.142 3.358 7.5 7.5 7.5s7.5-3.358 7.5-7.5v-124.366c0-4.142-3.358-7.5-7.5-7.5s-7.5 3.358-7.5 7.5z"/><path d="m416.11 191.885v-37.069c0-4.142-3.358-7.5-7.5-7.5s-7.5 3.358-7.5 7.5v37.069c0 17.369-14.126 31.5-31.49 31.5h-84.1v-53.73c0-4.142-3.358-7.5-7.5-7.5s-7.5 3.358-7.5 7.5v102.5h-36.04v-102.5c0-4.142-3.358-7.5-7.5-7.5s-7.5 3.358-7.5 7.5v53.73h-84.1c-17.369 0-31.5-14.131-31.5-31.5v-37.069c0-4.142-3.358-7.5-7.5-7.5s-7.5 3.358-7.5 7.5v37.069c0 25.64 20.86 46.5 46.5 46.5h84.1v33.77h-14.983c-4.142 0-7.5 3.358-7.5 7.5v32c0 4.142 3.358 7.5 7.5 7.5h14.983v42.34c0 1.862.692 3.657 1.942 5.036l25.52 28.16c1.422 1.569 3.44 2.464 5.558 2.464s4.136-.895 5.558-2.463l25.52-28.16c1.25-1.38 1.942-3.175 1.942-5.037v-42.34h14.977c4.142 0 7.5-3.358 7.5-7.5v-32c0-4.142-3.358-7.5-7.5-7.5h-14.977v-33.77h84.1c25.635 0 46.49-20.86 46.49-46.5zm-145.59 166.717-18.02 19.884-18.02-19.884v-39.447h36.04zm22.477-54.447h-81v-17h81z"/><path d="m100.499 142.314c4.142 0 7.5-3.358 7.5-7.5s-3.358-7.5-7.5-7.5h-51.299v-82.36h51.299c4.142 0 7.5-3.358 7.5-7.5s-3.358-7.5-7.5-7.5h-52.639c-7.532 0-13.66 6.128-13.66 13.66v2.09h-26.7c-4.142 0-7.5 3.358-7.5 7.5v65.86c0 4.142 3.358 7.5 7.5 7.5h26.7v2.09c0 7.532 6.128 13.66 13.66 13.66zm-85.499-30.75v-50.86h19.2v50.86z"/><path d="m182.501 142.314h139.998c4.142 0 7.5-3.358 7.5-7.5s-3.358-7.5-7.5-7.5h-139.998c-4.142 0-7.5 3.358-7.5 7.5s3.358 7.5 7.5 7.5z"/><path d="m182.501 44.954h139.998c4.142 0 7.5-3.358 7.5-7.5s-3.358-7.5-7.5-7.5h-139.998c-4.142 0-7.5 3.358-7.5 7.5s3.358 7.5 7.5 7.5z"/><path d="m497.5 45.704h-26.7v-2.09c0-7.532-6.132-13.66-13.67-13.66h-52.629c-4.142 0-7.5 3.358-7.5 7.5s3.358 7.5 7.5 7.5h51.299v82.36h-51.299c-4.142 0-7.5 3.358-7.5 7.5s3.358 7.5 7.5 7.5h52.629c7.538 0 13.67-6.128 13.67-13.66v-2.09h26.7c4.142 0 7.5-3.358 7.5-7.5v-65.86c0-4.142-3.358-7.5-7.5-7.5zm-7.5 65.86h-19.2v-50.86h19.2z"/><path d="m120.498 153.155h42c4.142 0 7.5-3.358 7.5-7.5v-119.04c0-4.142-3.358-7.5-7.5-7.5h-42c-4.142 0-7.5 3.358-7.5 7.5v62.147c0 4.142 3.358 7.5 7.5 7.5s7.5-3.358 7.5-7.5v-54.647h27v104.039h-27v-24.391c0-4.142-3.358-7.5-7.5-7.5s-7.5 3.358-7.5 7.5v31.891c0 4.143 3.357 7.501 7.5 7.501z"/><path d="m342.497 153.155h42c4.142 0 7.5-3.358 7.5-7.5v-119.04c0-4.142-3.358-7.5-7.5-7.5h-42c-4.142 0-7.5 3.358-7.5 7.5v119.039c0 4.143 3.357 7.501 7.5 7.501zm7.5-119.04h27v104.039h-27z"/><path d="m425.539 282.155h-15.04c-4.142 0-7.5 3.358-7.5 7.5s3.358 7.5 7.5 7.5h15.04c10.731 0 19.461 8.73 19.461 19.461v9.539h-34.501c-4.142 0-7.5 3.358-7.5 7.5s3.358 7.5 7.5 7.5h16.501v104.1c0 14.133-11.502 25.63-25.64 25.63h-12.805c5.895-7.132 9.442-16.273 9.442-26.228v-44.407c0-4.142-3.358-7.5-7.5-7.5s-7.5 3.358-7.5 7.5v44.407c0 14.45-11.745 26.207-26.19 26.228h-208.619c-14.445-.021-26.19-11.778-26.19-26.228v-193.775c0-4.142-3.358-7.5-7.5-7.5s-7.5 3.358-7.5 7.5v193.774c0 9.955 3.546 19.096 9.442 26.228h-12.803c-14.138 0-25.64-11.498-25.64-25.63v-104.1h16.501c4.142 0 7.5-3.358 7.5-7.5s-3.358-7.5-7.5-7.5h-34.501v-9.539c0-10.731 8.73-19.461 19.461-19.461h15.04c4.142 0 7.5-3.358 7.5-7.5s-3.358-7.5-7.5-7.5h-15.04c-19.002 0-34.461 15.459-34.461 34.461v17.039c0 4.142 3.358 7.5 7.5 7.5h10.5v104.1c0 22.404 18.231 40.63 40.64 40.63h297.723c22.409 0 40.64-18.227 40.64-40.63v-104.1h10.5c4.142 0 7.5-3.358 7.5-7.5v-17.039c0-19.001-15.459-34.46-34.461-34.46z"/><path d="m245.143 341.719c.681 3.267 3.465 5.765 6.806 6.007 3.139.228 6.122-1.571 7.399-4.44 2.696-6.054-3.579-12.492-9.715-9.957-3.296 1.362-5.129 4.905-4.49 8.39z"/><path d="m247.193 256.359c2.403 2.332 6.067 2.871 8.999 1.215 2.563-1.447 4.081-4.361 3.768-7.293-.318-2.974-2.419-5.529-5.285-6.401-3.176-.967-6.745.346-8.51 3.165-1.839 2.94-1.419 6.85 1.028 9.314z"/><path d="m245.573 215.519c2.532 6.132 11.529 5.997 13.917-.171 1.179-3.045.195-6.6-2.38-8.604-2.385-1.857-5.711-2.081-8.335-.594-3.22 1.826-4.646 5.947-3.202 9.369z"/></g></g></svg>