<svg id="Capa_1" enable-background="new 0 0 512 512" height="512" viewBox="0 0 512 512" width="512" xmlns="http://www.w3.org/2000/svg"><g><path d="m25.775 368.082c-16.085-32.979-25.293-69.928-25.757-108.98-1.682-141.66 114.312-259.102 255.983-259.102 141.384 0 255.999 114.615 255.999 256 0 40.777-9.534 79.328-26.495 113.544-3.191 6.437-9.813 10.456-16.997 10.456h-423.721c-8.097 0-15.462-4.64-19.012-11.918z" fill="#40c1fa"/><path d="m52.702 370.111c-13.347-27.365-20.988-58.024-21.372-90.428-1.396-117.546 94.852-214.995 212.406-214.995 117.316 0 212.42 95.104 212.42 212.421 0 33.836-7.911 65.824-21.984 94.215-2.648 5.341-8.142 8.676-14.104 8.676h-351.591c-6.719 0-12.83-3.85-15.775-9.889z" fill="#72d1fb"/><path d="m486.835 366.821c-9.858 20.496-22.365 39.477-37.078 56.499-3.627 4.196-8.987 6.562-14.519 6.161-19.125-1.385-38.5 2.435-55.775 11.773-11.523 6.229-24.143 9.665-37.374 9.665-13.23 0-25.85-3.435-37.372-9.663-30.474-16.473-66.96-16.473-97.434 0-11.522 6.228-24.142 9.663-37.372 9.663s-25.851-3.435-37.374-9.665c-13.984-7.56-29.345-11.502-44.835-11.996-13.685-.436-26.57-6.672-34.906-17.533-10.676-13.91-19.957-28.948-27.631-44.904 3.065-1.168 6.068-2.527 9.002-4.066 30.875-16.2 67.9-16.839 98.629-.362 11.453 6.141 23.984 9.526 37.116 9.526 13.23 0 25.85-3.435 37.372-9.663 30.474-16.473 66.96-16.473 97.434 0 11.522 6.228 24.142 9.663 37.372 9.663 13.122 0 25.644-3.379 37.09-9.512 30.761-16.481 67.801-15.808 98.717.38 2.913 1.526 5.895 2.874 8.938 4.034z" fill="#2476ed"/><path d="m212.016 237.5c0 4.143-3.357 7.5-7.5 7.5h-83.18l30.074 69.546c1.632 3.807-.132 8.216-3.939 9.848-.963.413-1.965.608-2.95.608-2.91 0-5.679-1.703-6.897-4.548l-32.63-75.454h-30.478c-4.143 0-7.5-3.357-7.5-7.5s3.357-7.5 7.5-7.5h130c4.143 0 7.5 3.357 7.5 7.5z" fill="#865b47"/><path d="m153.125 60.547c-1.8 11.19 5.628 21.782 16.761 23.903 4.914.936 6.771 6.994 3.225 10.523-8.033 7.995-8.25 20.93-.49 29.19 3.425 3.646 1.367 9.638-3.576 10.409-11.198 1.746-18.977 12.083-17.553 23.327.628 4.963-4.56 8.601-9.012 6.319-10.086-5.169-22.455-1.379-27.913 8.554-2.409 4.384-8.744 4.278-11.005-.185-5.121-10.111-17.356-14.314-27.61-9.486-4.526 2.131-9.589-1.679-8.795-6.618 1.8-11.19-5.628-21.782-16.761-23.903-4.914-.936-6.771-6.994-3.225-10.523 8.033-7.995 8.25-20.93.49-29.19-3.425-3.646-1.367-9.638 3.576-10.409 11.198-1.746 18.977-12.083 17.554-23.327-.628-4.963 4.56-8.601 9.012-6.319 10.086 5.169 22.455 1.379 27.913-8.554 2.409-4.384 8.744-4.278 11.005.185 5.121 10.111 17.356 14.314 27.61 9.486 4.526-2.131 9.589 1.679 8.794 6.618z" fill="#ffde91"/><path d="m147.093 108.516c0 20.408-16.544 36.952-36.952 36.952s-36.951-16.544-36.951-36.952 16.544-36.952 36.952-36.952 36.951 16.544 36.951 36.952z" fill="#ffc14f"/><path d="m132.313 108.516c0 12.245-9.926 22.171-22.171 22.171s-22.171-9.926-22.171-22.171 9.926-22.171 22.171-22.171 22.171 9.927 22.171 22.171z" fill="#ffa90b"/><path d="m386.114 347.5-39.614-50.5-32.644-269.5h134.194l18.64 107.181c13.969 80.326-16.91 161.886-80.576 212.819z" fill="#ffa90b"/><path d="m194.932 446.382c-.807.276-1.628.408-2.436.408-3.115 0-6.025-1.956-7.093-5.067l-32.127-93.607-30.959 93.529c-1.043 3.15-3.974 5.146-7.119 5.146-.781 0-1.575-.123-2.357-.382-3.933-1.302-6.065-5.545-4.764-9.477l37.004-111.789c1.149-3.474 4.592-5.542 8.09-5.082 3.461-.449 6.877 1.575 8.054 5.004l38.367 111.788c1.344 3.918-.742 8.184-4.66 9.529z" fill="#865b47"/><path d="m238.735 27.5h210l-70 310h-210c27.493-98.275 50.166-197.835 67.935-298.323z" fill="#ffe89c"/><path d="m200 337.5h-31.265c27.493-98.274 50.166-197.834 67.935-298.323l2.065-11.676h31.265l-2.065 11.676c-17.77 100.488-40.442 200.048-67.935 298.323z" fill="#ffde91"/><path d="m388.735 27.5-2.065 11.677c-17.77 100.488-40.442 200.048-67.935 298.322v.001h-90c27.493-98.274 50.165-197.833 67.935-298.322l2.065-11.678z" fill="#ffc14f"/><path d="m456.235 27.5c0 4.143-3.357 7.5-7.5 7.5h-210c-4.143 0-7.5-3.357-7.5-7.5s3.357-7.5 7.5-7.5h210c4.143 0 7.5 3.357 7.5 7.5z" fill="#ffcd71"/><path d="m358.735 357.5h-250c-11.046 0-20-8.954-20-20 0-11.046 8.954-20 20-20h270z" fill="#fcf2b6"/><path d="m159.516 357.5h-50.781c-11.046 0-20-8.954-20-20 0-11.046 8.954-20 20-20h50.781c-11.046 0-20 8.954-20 20 0 11.046 8.955 20 20 20z" fill="#ffe89c"/><path d="m458.735 230h-55.54c-.106-.002-.212-.002-.317 0h-134.143c-4.143 0-7.5 3.357-7.5 7.5s3.357 7.5 7.5 7.5h66.761l29.801 82.631-36.18 109.301c-1.302 3.932.831 8.175 4.764 9.477.782.259 1.576.382 2.357.382 3.146 0 6.076-1.995 7.119-5.146l30.179-91.169 32.908 91.248c1.067 3.111 3.978 5.067 7.093 5.067.808 0 1.629-.132 2.436-.408 3.918-1.345 6.004-5.61 4.659-9.528l-39.466-109.43 27.284-82.425h50.286c4.143 0 7.5-3.357 7.5-7.5s-3.358-7.5-7.501-7.5zm-85.807 74.58-21.488-59.58h41.209z" fill="#865b47"/><path d="m451.356 421.453c-46.959 55.39-117.052 90.547-195.356 90.547-83.747 0-158.101-40.213-204.806-102.384 7.515-4.574 15.768-8.559 24.806-11.616 47.254-15.981 68.787 9.365 140 17 103.59 11.107 138.597-33.887 214-3 5.295 2.169 13.107 5.369 21.356 9.453z" fill="#ffde91"/><path d="m254.73 511.997c-83.228-.404-157.067-40.524-203.537-102.38 7.516-4.575 15.769-8.56 24.807-11.617 31.742-10.735 51.879-2.822 83.264 5.844-4.626.836-9.46 2.085-14.597 3.822-.09.031-.181.061-.271.092-13.262 4.52-17.308 21.301-7.8 31.592 31.517 34.112 72.199 59.63 118.134 72.647z" fill="#ffcd71"/><path d="m157.093 445.402c0 5.523-4.477 10-10 10s-10-4.477-10-10 4.477-10 10-10 10 4.477 10 10zm132.055 19.203c-5.523 0-10 4.477-10 10s4.477 10 10 10 10-4.477 10-10-4.477-10-10-10zm82.897-43.686c-5.523 0-10 4.477-10 10s4.477 10 10 10 10-4.477 10-10-4.478-10-10-10zm-197.095 43.686c-5.523 0-10 4.477-10 10s4.477 10 10 10 10-4.477 10-10-4.477-10-10-10zm68.785-33.686c-5.523 0-10 4.477-10 10s4.477 10 10 10 10-4.477 10-10-4.477-10-10-10z" fill="#e4ab45"/></g></svg>